<?xml version="1.0" standalone="no"?>
<!DOCTYPE svg PUBLIC "-//W3C//DTD SVG 20010904//EN"
 "http://www.w3.org/TR/2001/REC-SVG-20010904/DTD/svg10.dtd">
<svg version="1.0" xmlns="http://www.w3.org/2000/svg"
 width="300.000000pt" height="120.000000pt" viewBox="0 0 300.000000 120.000000"
 preserveAspectRatio="xMidYMid meet">

<g transform="translate(0.000000,120.000000) scale(0.100000,-0.100000)"
fill="#000000" stroke="none">
<path d="M868 809 c-25 -14 -23 -56 3 -69 16 -9 26 -8 45 5 28 18 31 37 8 59
-18 18 -32 20 -56 5z"/>
<path d="M1240 610 l0 -200 34 0 34 0 4 94 c3 105 19 136 68 136 44 0 50 -16
50 -127 l0 -103 35 0 35 0 0 120 c0 115 -1 122 -25 145 -31 32 -91 34 -128 5
-14 -11 -28 -20 -31 -20 -3 0 -6 34 -6 75 l0 75 -35 0 -35 0 0 -200z"/>
<path d="M240 600 l0 -190 40 0 40 0 0 75 0 75 75 0 75 0 0 30 0 30 -75 0 -75
0 0 55 0 55 85 0 85 0 0 30 0 30 -125 0 -125 0 0 -190z"/>
<path d="M1592 598 l3 -193 32 -3 32 -3 3 133 c3 150 1 151 63 -25 37 -107 38
-108 68 -105 29 3 32 8 76 133 l46 130 3 -132 3 -133 34 0 35 0 0 195 0 195
-49 0 -48 0 -48 -142 -49 -142 -16 40 c-10 21 -32 85 -51 142 l-33 102 -53 0
-53 0 2 -192z"/>
<path d="M2670 760 c-29 -4 -36 -10 -38 -32 -2 -20 -9 -28 -23 -28 -14 0 -19
-7 -19 -30 0 -23 4 -30 20 -30 18 0 20 -7 20 -67 0 -126 28 -173 100 -173 48
0 72 18 63 48 -5 20 -11 23 -33 19 -41 -9 -50 9 -50 95 l0 78 40 0 c38 0 40 2
40 30 0 28 -2 30 -39 30 -38 0 -40 2 -43 33 -3 31 -5 32 -38 27z"/>
<path d="M1030 730 c0 -25 -4 -30 -25 -30 -21 0 -25 -5 -25 -30 0 -25 4 -30
25 -30 25 0 25 0 25 -94 0 -114 12 -135 80 -143 55 -6 83 11 73 45 -5 19 -10
22 -30 17 -42 -10 -53 9 -53 96 l0 79 40 0 c38 0 40 2 40 30 0 28 -2 30 -40
30 -38 0 -40 2 -40 30 0 28 -3 30 -35 30 -32 0 -35 -2 -35 -30z"/>
<path d="M581 682 c-41 -20 -46 -31 -27 -57 11 -16 17 -17 29 -7 39 33 117 31
117 -3 0 -17 -21 -27 -93 -46 -54 -13 -77 -39 -77 -85 0 -70 83 -108 141 -65
l29 22 28 -21 c33 -24 88 -19 78 7 -3 8 -6 19 -6 24 0 5 -6 9 -14 9 -11 0 -15
22 -18 96 -3 91 -5 97 -31 120 -35 30 -105 33 -156 6z m119 -162 c0 -29 -29
-70 -51 -70 -22 0 -49 21 -49 39 0 22 19 40 57 51 42 13 43 12 43 -20z"/>
<path d="M860 555 l0 -145 35 0 35 0 0 145 0 145 -35 0 -35 0 0 -145z"/>
<path d="M2113 680 c-36 -21 -41 -41 -18 -60 11 -9 19 -8 37 4 12 9 39 16 60
16 34 0 38 -3 38 -24 0 -22 -7 -26 -55 -36 -75 -16 -107 -44 -107 -95 0 -74
85 -112 145 -65 l26 21 21 -21 c31 -31 74 -24 78 13 2 18 -1 27 -11 27 -11 0
-16 21 -19 96 -4 91 -6 98 -32 120 -36 31 -116 33 -163 4z m127 -144 c0 -28
-19 -65 -40 -76 -28 -15 -60 3 -60 35 0 19 9 26 43 38 54 20 57 20 57 3z"/>
<path d="M2392 553 l3 -148 35 0 35 0 3 95 c3 107 15 130 67 130 29 0 33 4 37
30 3 17 2 32 0 35 -13 12 -64 3 -82 -15 -11 -11 -22 -20 -25 -20 -3 0 -5 9 -5
20 0 16 -7 20 -35 20 l-36 0 3 -147z"/>
</g>
</svg>
